<mxfile host="app.diagrams.net" modified="2024-07-01T16:12:32.131Z" agent="Mozilla/5.0 (Windows NT 10.0; Win64; x64; rv:127.0) Gecko/20100101 Firefox/127.0" etag="0LLi7zYsDW8rlqrQI7sF" version="24.6.2" type="github">
  <diagram name="Page-1" id="03018318-947c-dd8e-b7a3-06fadd420f32">
    <mxGraphModel dx="1562" dy="826" grid="1" gridSize="10" guides="1" tooltips="1" connect="1" arrows="1" fold="1" page="1" pageScale="1" pageWidth="1100" pageHeight="850" background="#ffffff" math="0" shadow="0">
      <root>
        <mxCell id="0" />
        <mxCell id="1" parent="0" />
        <mxCell id="677b7b8949515195-2" value="Thành Công" style="whiteSpace=wrap;html=1;rounded=0;shadow=0;labelBackgroundColor=none;strokeWidth=1;fontFamily=Verdana;fontSize=28;align=center;comic=1;" parent="1" vertex="1">
          <mxGeometry x="650" y="220" width="190" height="50" as="geometry" />
        </mxCell>
        <mxCell id="677b7b8949515195-9" value="" style="line;strokeWidth=1;html=1;rounded=0;shadow=0;labelBackgroundColor=none;fillColor=none;fontFamily=Verdana;fontSize=14;fontColor=#000000;align=center;comic=1;" parent="1" vertex="1">
          <mxGeometry x="20" y="140" width="1060" height="10" as="geometry" />
        </mxCell>
        <mxCell id="8TPGHvMdg9Enha9PC4Vt-1" value="Account chuyển" style="strokeWidth=1;html=1;shadow=0;dashed=0;shape=mxgraph.ios.iComboBox;spacingTop=2;spacingLeft=2;align=left;strokeColor=#444444;fontColor=#666666;buttonText=;fontSize=8;fillColor=#dddddd;fillColor2=#3D5565;sketch=0;whiteSpace=wrap;" vertex="1" parent="1">
          <mxGeometry x="250" y="225" width="160" height="40" as="geometry" />
        </mxCell>
        <mxCell id="8TPGHvMdg9Enha9PC4Vt-2" value="Ghi chú" style="html=1;shadow=0;dashed=0;shape=mxgraph.bootstrap.rrect;rSize=5;strokeColor=#CED4DA;strokeWidth=1;fillColor=#E9ECEF;fontColor=#505050;whiteSpace=wrap;align=left;verticalAlign=middle;spacingLeft=10;fontSize=14;" vertex="1" parent="1">
          <mxGeometry x="420" y="225" width="190" height="40" as="geometry" />
        </mxCell>
        <mxCell id="8TPGHvMdg9Enha9PC4Vt-3" value="&lt;div&gt;Lý do thất bại&lt;/div&gt;&lt;div&gt;&lt;br&gt;&lt;/div&gt;" style="html=1;shadow=0;dashed=0;shape=mxgraph.bootstrap.rrect;rSize=5;strokeColor=#CED4DA;strokeWidth=1;fillColor=#E9ECEF;fontColor=#505050;whiteSpace=wrap;align=left;verticalAlign=middle;spacingLeft=10;fontSize=14;" vertex="1" parent="1">
          <mxGeometry x="260" y="360" width="350" height="70" as="geometry" />
        </mxCell>
        <mxCell id="8TPGHvMdg9Enha9PC4Vt-4" value="Thất Bại" style="whiteSpace=wrap;html=1;rounded=0;shadow=0;labelBackgroundColor=none;strokeWidth=1;fontFamily=Verdana;fontSize=28;align=center;comic=1;" vertex="1" parent="1">
          <mxGeometry x="640" y="375" width="190" height="50" as="geometry" />
        </mxCell>
      </root>
    </mxGraphModel>
  </diagram>
</mxfile>
